<svg width="32" height="32" viewBox="0 0 32 32" fill="none" xmlns="http://www.w3.org/2000/svg">
<path fill-rule="evenodd" clip-rule="evenodd" d="M16 32C24.8365 32 32 24.8365 32 16C32 7.16345 24.8365 0 16 0C7.16345 0 0 7.16345 0 16C0 24.8365 7.16345 32 16 32ZM12.9965 24.2872V10.3596L12.9957 10.3589C12.9884 10.3367 12.9764 10.3165 12.9605 10.2996L6.97272 7.26001C6.80847 7.17719 6.64423 7.08215 6.45673 7.08215C6.14026 7.08215 6 7.35498 6 7.6521V21.1883C6 21.5447 6.25726 21.9718 6.58575 22.1382L12.035 24.905C12.0986 24.9378 12.1658 24.9623 12.2349 24.9783C12.2961 24.9924 12.3588 24.9997 12.422 25C12.821 25 12.9965 24.655 12.9965 24.2872ZM20.0043 21.8411L13.7465 11.5588V18.6829L20.0043 21.8411ZM27 24.2872V11.7723L20.6725 22.1861L25.8405 24.7979C26.004 24.8929 26.1915 24.9521 26.391 24.9521C26.7773 24.9521 27 24.6793 27 24.2872ZM20.4377 21.1176C20.9065 20.3577 26.9647 10.3961 26.9647 10.3483C26.9644 10.313 26.9406 10.2897 26.9175 10.2776L20.578 7.07153C20.5209 7.04242 20.4597 7.02228 20.3967 7.01099C20.3562 7.00372 20.3149 7.00012 20.2735 7.00012C20.1523 6.99805 20.0327 7.02765 19.9261 7.08588C19.8195 7.14417 19.7294 7.22925 19.6645 7.33295L15.8674 13.59L20.4377 21.1176Z" fill="#A6A6A6"/>
</svg>
