<svg width="32" height="32" viewBox="0 0 32 32" fill="none" xmlns="http://www.w3.org/2000/svg">
<path fill-rule="evenodd" clip-rule="evenodd" d="M16 32C24.8366 32 32 24.8366 32 16C32 7.16344 24.8366 0 16 0C7.16344 0 0 7.16344 0 16C0 24.8366 7.16344 32 16 32ZM6.13601 15.0567L23.307 8.41472C24.0905 8.05916 24.8479 8.60416 24.5486 9.80782L21.6248 23.63C21.4205 24.6132 20.8307 24.8463 20.0094 24.3927L15.5554 21.0925L13.4141 23.1812C13.4061 23.189 13.3982 23.1967 13.3903 23.2043C13.1514 23.436 12.9534 23.6281 12.5221 23.6281L12.8262 19.0699L21.0902 11.5876C21.4524 11.265 21.0118 11.1067 20.5295 11.4011L10.3295 17.8565L5.92101 16.477C4.97093 16.1846 4.96415 15.5289 6.13601 15.0567Z" fill="#A6A6A6"/>
</svg>
