<svg width="32" height="32" viewBox="0 0 32 32" fill="none" xmlns="http://www.w3.org/2000/svg">
<path fill-rule="evenodd" clip-rule="evenodd" d="M16 32C24.8366 32 32 24.8366 32 16C32 7.16344 24.8366 0 16 0C7.16344 0 0 7.16344 0 16C0 24.8366 7.16344 32 16 32ZM23.8298 11.7075C24.6416 11.6216 25.4296 11.4011 26.1538 11.0946C25.6048 11.8793 24.9161 12.578 24.1304 13.1421C24.1422 13.3139 24.1422 13.4856 24.1422 13.6574C24.1422 18.892 20.0812 24.9229 12.6596 24.9229C10.3735 24.9229 8.25065 24.2729 6.46152 23.1471C6.78574 23.1842 7.09813 23.1958 7.43655 23.1958C9.32271 23.1958 11.0598 22.5691 12.4466 21.5036C10.674 21.4664 9.18545 20.3266 8.67427 18.7574C8.92513 18.7922 9.17362 18.8178 9.43631 18.8178C9.79839 18.8178 10.1605 18.769 10.4989 18.6831C8.6506 18.3164 7.26379 16.7216 7.26379 14.7972V14.7484C7.801 15.0433 8.42578 15.2266 9.08842 15.2522C8.00216 14.5395 7.28982 13.3278 7.28982 11.9535C7.28982 11.2177 7.48861 10.5445 7.83887 9.95486C9.82443 12.3575 12.811 13.9267 16.1598 14.0985C16.0982 13.8037 16.0604 13.4972 16.0604 13.1908C16.0604 11.0088 17.859 9.2306 20.0954 9.2306C21.2574 9.2306 22.3058 9.7088 23.0441 10.4818C23.9553 10.31 24.8309 9.97808 25.6048 9.52541C25.3042 10.4447 24.6676 11.2177 23.8298 11.7075Z" fill="#A6A6A6"/>
</svg>
