<svg width="100" height="100" viewBox="0 0 100 100" fill="none" xmlns="http://www.w3.org/2000/svg">
<path d="M50.0023 99.9953C22.4292 99.9953 0 77.5661 0 49.9977C0 22.4292 22.4292 0 50.0023 0C77.5708 0 100 22.4292 100 49.9977C100 77.5661 77.5708 99.9953 50.0023 99.9953ZM50.0023 7.18934C26.3936 7.18934 7.18933 26.3936 7.18933 49.9977C7.18933 73.6017 26.3936 92.806 50.0023 92.806C73.6064 92.806 92.8107 73.6017 92.8107 49.9977C92.8107 26.3936 73.6064 7.18934 50.0023 7.18934Z" fill="#FF0420"/>
<path d="M29.7215 73.8685C28.7995 73.8685 27.882 73.5174 27.18 72.8153C25.7759 71.4111 25.7759 69.1363 27.18 67.7322L67.737 27.1752C69.1411 25.7711 71.416 25.7711 72.8201 27.1752C74.2242 28.5793 74.2242 30.8542 72.8201 32.2583L32.2631 72.8153C31.561 73.5174 30.6437 73.8685 29.7215 73.8685Z" fill="#FF0420"/>
<path d="M70.2785 73.8685C69.3565 73.8685 68.439 73.5174 67.737 72.8153L27.18 32.2583C25.7759 30.8542 25.7759 28.5793 27.18 27.1752C28.5842 25.7711 30.859 25.7711 32.2631 27.1752L72.8201 67.7323C74.2242 69.1364 74.2242 71.4113 72.8201 72.8154C72.118 73.5174 71.2006 73.8685 70.2785 73.8685Z" fill="#FF0420"/>
</svg>
