<svg width="137" height="13" viewBox="0 0 137 13" fill="none" xmlns="http://www.w3.org/2000/svg">
<path fill-rule="evenodd" clip-rule="evenodd" d="M129.592 0.0388263L127.471 0.0587937L127.304 0.860059C126.899 2.80467 125.359 8.71532 124.601 11.2371C124.445 11.7581 124.336 12.1952 124.361 12.2086C124.385 12.222 125.231 12.2166 126.241 12.1967L128.078 12.1605L128.203 11.5819C128.648 9.52636 130.311 2.95906 130.438 2.75868C130.487 2.68123 130.742 2.65962 131.606 2.65962H132.71L132.924 2.89253C133.17 3.16124 133.196 3.42744 133.025 3.91672C132.865 4.37404 132.539 4.72404 132.057 4.95488C131.681 5.13523 131.563 5.15548 130.895 5.1547L130.152 5.15391L130.192 6.33135C130.214 6.97901 130.262 7.54017 130.298 7.57839C130.334 7.61704 130.794 7.64735 131.33 7.64649C132.48 7.64478 133.193 7.48896 134.16 7.0275C135.008 6.62273 135.963 5.70452 136.406 4.86624C136.869 3.99117 137.032 3.32418 136.995 2.45146C136.959 1.59629 136.786 1.19565 136.243 0.707165C135.579 0.10914 134.983 -0.0213613 133.027 0.00267094C132.304 0.011585 130.758 0.0278442 129.592 0.0388263ZM86.042 0.161341C84.9131 0.336056 84.112 0.655891 83.3596 1.23224C82.3078 2.03785 81.6445 3.45604 81.8323 4.49713C81.9601 5.2049 82.2798 5.66758 83.5506 6.98414C84.1975 7.65434 84.8005 8.31932 84.8908 8.46195C85.3933 9.25608 84.7256 9.89461 83.3286 9.95608C82.5111 9.99203 81.6911 9.84391 80.8083 9.5009C80.4617 9.36619 80.1591 9.25601 80.1357 9.25601C80.085 9.25601 80.0693 9.35421 79.859 10.9848C79.7692 11.6806 79.7099 12.2638 79.7271 12.2805C79.7442 12.2973 80.235 12.3849 80.8176 12.4753C81.6467 12.6038 82.1707 12.6395 83.2287 12.6391C84.8462 12.6384 85.494 12.5124 86.59 11.9851C88.4176 11.1058 89.4776 9.17179 88.9238 7.72729C88.7085 7.16571 88.2803 6.64049 87.1758 5.58343C86.158 4.60923 85.7861 4.14256 85.7865 3.84013C85.7872 3.37175 86.2909 2.99173 87.1287 2.82749C87.693 2.71689 88.7578 2.84489 89.5833 3.12258C89.9234 3.23697 90.2106 3.32183 90.2215 3.31113C90.2555 3.27797 90.555 0.963889 90.564 0.66502L90.5724 0.38191L90.0975 0.297191C88.7527 0.0573675 87.0763 0.0012447 86.042 0.161341ZM109.312 0.18138L107.811 0.202131L107.533 0.753447C107.379 1.0566 106.504 2.68458 105.588 4.37112C104.672 6.05766 103.816 7.67095 103.685 7.9562C103.555 8.24145 103.436 8.46223 103.42 8.4469C103.386 8.4136 103.574 4.68447 103.726 2.36425C103.786 1.45666 103.835 0.5982 103.835 0.456645V0.19935H101.728H99.6205L99.0486 1.46514C98.7339 2.16137 97.9097 3.91886 97.217 5.37078C96.5243 6.82269 95.9078 8.12236 95.8471 8.25892C95.7471 8.4837 95.7396 8.17934 95.7681 5.04859C95.7853 3.14633 95.8145 1.29314 95.8329 0.930301L95.8662 0.270663H93.9571H92.048L92.0957 1.13761C92.122 1.6144 92.1435 4.3421 92.1435 7.19915V12.3938H94.4309H96.7182L98.0968 9.6304C98.8551 8.11059 99.6377 6.51405 99.8361 6.08261C100.034 5.65118 100.214 5.28213 100.235 5.26252C100.257 5.24291 100.253 5.43546 100.228 5.6904C100.147 6.49943 99.9658 12.2837 100.02 12.3217C100.048 12.3417 101.133 12.3488 102.429 12.3374L104.787 12.3167L105.197 11.5173C105.423 11.0777 106.907 8.39449 108.494 5.55469C110.082 2.71489 111.397 0.332134 111.416 0.259752C111.447 0.144868 111.411 0.130106 111.132 0.144368C110.957 0.153283 110.138 0.16997 109.312 0.18138ZM116.619 0.787677C115.76 2.00305 109.021 10.894 108.297 11.7672C108.093 12.0127 107.927 12.2379 107.927 12.268C107.927 12.2979 108.894 12.3224 110.076 12.3224H112.226L112.46 11.9481C112.589 11.7422 113.126 10.956 113.654 10.2009L114.612 8.82814H116.886H119.16L119.206 9.20253C119.232 9.40841 119.299 9.92991 119.356 10.3614C119.413 10.7928 119.481 11.3945 119.508 11.6985L119.558 12.2511H121.634H123.71L123.709 12.055C123.708 11.9472 123.677 11.7305 123.64 11.5737C123.522 11.0758 122.337 3.658 122.087 1.85736L121.847 0.128038H119.466H117.086L116.619 0.787677ZM74.2409 0.341832C73.4974 0.371142 72.3055 0.399167 71.5921 0.404159C70.8787 0.409222 70.295 0.429974 70.295 0.45037C70.295 0.470765 70.0472 1.53774 69.7444 2.8215C68.917 6.32886 68.182 9.05106 67.4102 11.4667C67.2661 11.9177 67.1306 12.3429 67.1091 12.4116C67.0726 12.5283 67.1974 12.5364 69.0345 12.5364H70.9989L71.2741 11.3419C71.6494 9.71348 72.4754 6.41065 72.9765 4.53514L73.3898 2.98766L73.7877 2.93917C74.4511 2.85823 75.917 2.94552 76.2714 3.08707C76.8556 3.32026 76.9743 3.94888 76.5609 4.62093C76.0729 5.41449 75.3626 5.72584 74.04 5.72598C73.5715 5.72598 73.2179 5.75508 73.2179 5.79359C73.2179 5.83067 73.3645 6.80943 73.5436 7.96861C73.7227 9.12772 73.9176 10.6017 73.9768 11.2441C74.036 11.8866 74.1114 12.4321 74.1444 12.4564C74.1774 12.4808 75.1292 12.4847 76.2596 12.4651L78.3147 12.4294L77.8857 10.7179C77.4466 8.96684 77.0907 7.40546 77.0907 7.23003C77.0907 7.17512 77.3082 7.04768 77.5839 6.94114C78.8726 6.44296 79.8018 5.66793 80.3049 4.67163C80.7708 3.74913 80.9138 2.87542 80.7189 2.14204C80.4704 1.20714 79.6511 0.618096 78.3253 0.421274C77.6286 0.3178 75.7685 0.281645 74.2409 0.341832ZM59.469 0.466557L58.4711 0.488522L58.3485 1.03927C57.7456 3.74635 56.417 8.65321 55.4322 11.8101L55.1805 12.617L60.2716 12.5672C63.0717 12.5398 65.3712 12.5107 65.3817 12.5024C65.4143 12.4767 66.1299 9.91715 66.1299 9.82623C66.1299 9.77673 66.0805 9.75848 66.0139 9.78337C65.8721 9.83649 60.0032 10.0039 59.9544 9.95623C59.9131 9.91594 60.421 7.95905 60.4914 7.88717C60.5181 7.85993 61.7033 7.8118 63.125 7.7802L65.7102 7.7228L66.0648 6.47483C66.2598 5.78845 66.42 5.18629 66.4208 5.13666C66.4219 5.0647 65.8982 5.05622 63.8334 5.09458L61.2446 5.14272L61.4598 4.3647C61.5782 3.93676 61.7012 3.49056 61.7332 3.3731C61.7858 3.17971 61.8289 3.15396 62.1886 3.1014C62.4072 3.06946 63.7876 3.05327 65.2564 3.06539L67.9268 3.0875L68.2736 1.80388C68.4643 1.09789 68.619 0.496152 68.6174 0.466771C68.6146 0.417138 61.7202 0.416995 59.469 0.466557ZM45.9586 0.502427C45.9566 0.512269 45.7958 1.14181 45.6011 1.90157L45.2472 3.28282L47.1757 3.23055C48.2506 3.20146 49.1039 3.20552 49.1035 3.23989C49.0999 3.55431 47.6451 8.97497 46.9755 11.1689C46.7322 11.966 46.5444 12.6291 46.5582 12.6424C46.572 12.6558 47.4847 12.6453 48.5865 12.6193L50.5897 12.572L51.0807 10.5396C51.6451 8.20273 51.9993 6.85999 52.6294 4.66649L53.0771 3.10775L54.9818 3.15888L56.8864 3.21008L57.1973 2.00783C57.3683 1.34655 57.5283 0.733337 57.5529 0.645052L57.5976 0.484599H51.7799C48.5801 0.484599 45.9605 0.492586 45.9586 0.502427ZM33.7068 0.609325L32.1564 0.630076L32.0909 0.896071C32.0548 1.04233 31.8686 1.80388 31.6772 2.58831C31.0436 5.18501 29.1822 11.8939 28.8825 12.6612C28.8552 12.731 29.2434 12.7503 30.6753 12.7503H32.5029L32.8447 11.3419C33.1749 9.98133 34.418 5.17296 34.4484 5.13873C34.4567 5.12953 34.6531 5.67507 34.885 6.35103C35.1169 7.02707 35.679 8.54467 36.1343 9.72346C36.5895 10.9023 37.0164 12.0495 37.0829 12.2729L37.2039 12.679H39.5239H41.8437L42.0159 11.9481C42.3894 10.3621 44.683 2.05775 45.1279 0.680708C45.1655 0.564113 45.0476 0.555912 43.3365 0.555912C41.571 0.555912 41.5048 0.560904 41.5048 0.694543C41.5048 0.770776 41.1067 2.36732 40.6201 4.24233C40.1335 6.11734 39.7005 7.78783 39.6578 7.95456C39.6152 8.12129 39.5611 8.25621 39.5378 8.25443C39.5144 8.25265 38.9363 6.61396 38.2531 4.61294C37.5698 2.61192 36.9713 0.880454 36.923 0.765285L36.8353 0.555912L36.0462 0.572242C35.6122 0.581228 34.5594 0.597915 33.7068 0.609325ZM19.587 0.696468L17.9466 0.734192L17.379 2.87356C17.0667 4.05021 16.6575 5.52638 16.4696 6.15393C16.2818 6.78148 15.9985 7.77628 15.8401 8.36461C15.5776 9.34023 15.5548 9.49698 15.5805 10.1474C15.6023 10.6967 15.6441 10.9261 15.7627 11.1458C16.1997 11.9552 17.2908 12.5855 18.7429 12.8675C19.7218 13.0575 21.9469 13.0404 23.1099 12.8338C24.0712 12.663 24.9931 12.35 25.7578 11.9349C26.4488 11.5596 27.292 10.7256 27.6369 10.0761C27.8905 9.59867 28.305 8.3778 28.4965 7.54452C28.5742 7.20635 30.3465 0.961893 30.4344 0.716364C30.4595 0.646407 30.0263 0.627224 28.4247 0.627224H26.383L26.2757 1.00161C26.2166 1.20756 25.9507 2.17827 25.6847 3.15881C24.3908 7.92803 24.0676 8.81102 23.3645 9.49726C22.8509 9.99852 22.3572 10.1831 21.53 10.1831C20.7438 10.1831 20.2103 9.9486 19.9883 9.5056C19.6663 8.86287 19.839 7.97146 21.1942 3.27947C21.5942 1.89459 21.9215 0.73134 21.9215 0.6944C21.9215 0.65746 21.7654 0.634284 21.5744 0.642984C21.3835 0.651684 20.4892 0.675716 19.587 0.696468ZM5.18145 0.753161L3.16525 0.772059L2.99675 1.57325C2.70022 2.98331 1.48007 7.63423 0.728452 10.2195C0.3278 11.5976 0 12.7629 0 12.809C0 12.8713 0.522025 12.8929 2.03088 12.8929H4.06177L4.67557 10.4327L5.2893 7.97239H7.7231C9.06178 7.97239 10.1568 7.99649 10.1566 8.02587C10.1559 8.13434 9.55822 10.3283 9.19477 11.5571C8.98856 12.254 8.83306 12.8337 8.84906 12.8455C8.86507 12.8572 9.79929 12.8531 10.925 12.8364L12.9719 12.8059L13.2923 11.3697C13.7596 9.27577 14.5852 6.0737 15.3799 3.27398C15.7626 1.92539 16.0758 0.794166 16.0758 0.760221C16.0758 0.726277 15.1594 0.698536 14.0393 0.698536H12.0028L11.9171 1.14424C11.87 1.38941 11.6288 2.39898 11.3811 3.38787L10.9309 5.18579L8.51622 5.20633C7.18814 5.2176 6.08892 5.21995 6.07358 5.21153C6.0331 5.18921 6.37734 3.86844 6.83922 2.27347C7.05976 1.512 7.2306 0.85414 7.21891 0.811566C7.20407 0.757725 6.5845 0.739969 5.18145 0.753161ZM118.845 4.52508C118.949 5.39417 119.034 6.12426 119.034 6.14744C119.034 6.17061 118.424 6.18958 117.678 6.18958H116.321L116.845 5.45863C117.133 5.05657 117.65 4.31835 117.993 3.81795C118.337 3.31762 118.627 2.91649 118.638 2.92655C118.648 2.93667 118.741 3.65593 118.845 4.52508ZM100.303 5.16746C100.276 5.19356 100.254 5.17217 100.254 5.1199C100.254 5.06763 100.276 5.04623 100.303 5.07233C100.33 5.09851 100.33 5.14129 100.303 5.16746Z" fill="white"/>
</svg>
