<svg width="23" height="23" viewBox="0 0 23 23" fill="none" xmlns="http://www.w3.org/2000/svg">
<path d="M15.4351 18.552C14.8377 18.552 14.2462 18.4366 13.6944 18.2125C13.1425 17.9883 12.641 17.6597 12.2186 17.2455C11.7962 16.8313 11.4612 16.3396 11.2326 15.7984C11.004 15.2572 10.8863 14.6771 10.8863 14.0913C10.8863 13.5055 11.004 12.9255 11.2326 12.3843C11.4612 11.8431 11.7962 11.3513 12.2186 10.9371C12.641 10.5229 13.1425 10.1943 13.6944 9.97016C14.2462 9.74599 14.8377 9.63061 15.4351 9.63061H20.4422C20.8045 9.62934 21.1653 9.6769 21.5145 9.77193V8.13031C21.5145 7.33273 21.1914 6.56781 20.6163 6.00384C20.0412 5.43986 19.2611 5.12302 18.4478 5.12302H17.9492L16.1256 1.63349C15.7536 0.925385 15.1108 0.390511 14.3377 0.145777C13.5647 -0.0989576 12.7244 -0.0336491 12.0003 0.327428L2.77229 4.96897C2.07563 5.33065 0 5.82629 0 8.13031V19.9927C0.00180417 20.7897 0.325478 21.5536 0.900199 22.1172C1.47492 22.6808 2.25389 22.9982 3.06667 23H18.4478C19.2611 23 20.0412 22.6832 20.6163 22.1192C21.1914 21.5552 21.5145 20.7903 21.5145 19.9927V18.4114C21.1652 18.5059 20.8045 18.5532 20.4422 18.552H15.4351ZM13.2427 2.71183C13.3216 2.67224 13.4134 2.66481 13.4979 2.69114C13.5824 2.71748 13.6529 2.77545 13.6941 2.85248L14.8819 5.12302H8.44187L13.2427 2.71183Z" fill="#BFFF37"/>
<path d="M20.8417 11.9762H15.4351C15.1517 11.9762 14.871 12.0309 14.6092 12.1373C14.3473 12.2437 14.1094 12.3996 13.909 12.5961C13.7086 12.7926 13.5496 13.026 13.4411 13.2827C13.3326 13.5395 13.2768 13.8147 13.2768 14.0927C13.2768 14.3706 13.3326 14.6458 13.4411 14.9026C13.5496 15.1594 13.7086 15.3927 13.909 15.5893C14.1094 15.7858 14.3473 15.9417 14.6092 16.0481C14.871 16.1544 15.1517 16.2092 15.4351 16.2092H20.8417C21.1252 16.2092 21.4058 16.1544 21.6677 16.0481C21.9295 15.9417 22.1674 15.7858 22.3679 15.5893C22.5683 15.3927 22.7272 15.1594 22.8357 14.9026C22.9442 14.6458 23 14.3706 23 14.0927C23 13.8147 22.9442 13.5395 22.8357 13.2827C22.7272 13.026 22.5683 12.7926 22.3679 12.5961C22.1674 12.3996 21.9295 12.2437 21.6677 12.1373C21.4058 12.0309 21.1252 11.9762 20.8417 11.9762Z" fill="#BFFF37"/>
</svg>
