<svg width="21" height="28" viewBox="0 0 21 28" fill="none" xmlns="http://www.w3.org/2000/svg">
<path d="M12.2941 -5.3739e-07C13.2379 -5.78646e-07 13.8783 0.222095 14.2154 0.666288C14.5525 1.11048 14.721 1.82119 14.721 2.79842L14.721 4.89723C14.721 5.85224 14.7266 5.86834 14.7379 6.94551C14.7491 8.02268 14.7547 9.07208 14.7547 10.0937L14.7547 11.5257C14.7547 12.3697 14.839 13.0415 15.0075 13.5412C15.1761 14.0409 15.5637 14.2797 16.1705 14.2575C16.6199 14.2575 17.1536 14.2686 17.7716 14.2908C18.3895 14.313 18.9345 14.3241 19.4064 14.3241C20.1929 14.3241 20.6929 14.5351 20.9064 14.9571C21.1199 15.3791 20.9682 15.9232 20.4513 16.5895C19.912 17.2558 19.2772 18.0442 18.5469 18.9548C17.8165 19.8654 17.0693 20.7927 16.3053 21.7366C15.5412 22.6805 14.7884 23.6133 14.0469 24.535C13.3053 25.4567 12.6536 26.2729 12.0918 26.9836C11.5525 27.6499 11.0413 27.9886 10.5581 27.9997C10.075 28.0108 9.57497 27.7054 9.05811 27.0836C8.51879 26.4617 7.89519 25.7177 7.18733 24.8515C6.47947 23.9853 5.74913 23.0858 4.99632 22.153C4.24352 21.2202 3.49633 20.3041 2.75476 19.4046C2.01318 18.5051 1.35026 17.7 0.765997 16.9893C0.136785 16.2119 -0.104788 15.5734 0.0412793 15.0737C0.187346 14.574 0.664873 14.3241 1.47386 14.3241L2.31655 14.3241C2.63116 14.3241 2.957 14.3186 3.29408 14.3074C3.63116 14.2963 3.96262 14.2852 4.28846 14.2741C4.6143 14.263 4.90082 14.2575 5.14801 14.2575C5.7098 14.2353 6.06374 14.0576 6.2098 13.7244C6.35587 13.3913 6.4289 12.936 6.4289 12.3585C6.4289 11.7145 6.42329 10.8705 6.41205 9.82665C6.40081 9.78279 6.3952 8.69452 6.3952 7.56183C6.3952 6.42913 6.38958 6.32975 6.37834 5.26369C6.36711 4.19762 6.36149 3.33145 6.36149 2.66516C6.36149 2.37643 6.38396 2.0766 6.4289 1.76567C6.47385 1.45473 6.58059 1.17156 6.74913 0.916149C6.91767 0.660738 7.15362 0.449743 7.45699 0.28317C7.76036 0.116598 8.15924 0.0333134 8.65362 0.0333134C9.26036 0.0333133 9.84463 0.0277591 10.4064 0.0166545C10.9682 0.00554991 11.5974 -5.0694e-07 12.2941 -5.3739e-07Z" fill="#8E8E8E"/>
</svg>
