<svg width="206" height="20" viewBox="0 0 206 20" fill="none" xmlns="http://www.w3.org/2000/svg">
<path fill-rule="evenodd" clip-rule="evenodd" d="M194.86 0.0597327L191.672 0.0904519L191.421 1.32317C190.812 4.31488 188.497 13.4082 187.357 17.2879C187.121 18.0893 186.958 18.7619 186.995 18.7824C187.031 18.803 188.304 18.7948 189.823 18.7642L192.584 18.7084L192.773 17.8183C193.441 14.6559 195.942 4.55241 196.133 4.24412C196.207 4.12497 196.59 4.09173 197.889 4.09173H199.55L199.87 4.45005C200.24 4.86344 200.28 5.27299 200.023 6.02572C199.783 6.7293 199.293 7.26776 198.568 7.6229C198.002 7.90035 197.825 7.93151 196.821 7.93031L195.703 7.9291L195.763 9.74054C195.796 10.7369 195.868 11.6003 195.922 11.6591C195.977 11.7185 196.668 11.7652 197.474 11.7638C199.204 11.7612 200.275 11.5215 201.729 10.8115C203.005 10.1888 204.44 8.77618 205.107 7.48652C205.803 6.14026 206.048 5.11413 205.993 3.77148C205.938 2.45583 205.679 1.83947 204.862 1.08795C203.863 0.167908 202.967 -0.0328636 200.026 0.00410913C198.938 0.017823 196.614 0.0428372 194.86 0.0597327ZM129.377 0.248217C127.68 0.517009 126.475 1.00906 125.344 1.89575C123.762 3.13516 122.765 5.31698 123.047 6.91866C123.239 8.00754 123.72 8.71935 125.631 10.7448C126.603 11.7759 127.51 12.799 127.646 13.0184C128.402 14.2401 127.398 15.2225 125.297 15.3171C124.068 15.3723 122.835 15.1445 121.507 14.6168C120.986 14.4095 120.531 14.24 120.496 14.24C120.42 14.24 120.396 14.3911 120.08 16.8996C119.945 17.9702 119.856 18.8673 119.882 18.8931C119.907 18.9189 120.645 19.0537 121.521 19.1927C122.768 19.3905 123.556 19.4454 125.147 19.4447C127.579 19.4437 128.553 19.2499 130.201 18.4386C132.949 17.0858 134.543 14.1104 133.71 11.8881C133.386 11.0242 132.743 10.2161 131.082 8.58989C129.551 7.09113 128.992 6.37318 128.993 5.90789C128.994 5.18731 129.751 4.60266 131.011 4.34999C131.86 4.17983 133.461 4.37676 134.702 4.80398C135.213 4.97995 135.645 5.11051 135.662 5.09405C135.713 5.04304 136.163 1.48291 136.176 1.02311L136.189 0.587553L135.475 0.457216C133.453 0.0882577 130.932 0.00191492 129.377 0.248217ZM164.368 0.279045L162.111 0.310971L161.691 1.15915C161.461 1.62553 160.145 4.13013 158.767 6.7248C157.39 9.31947 156.102 11.8015 155.907 12.2403C155.711 12.6792 155.531 13.0188 155.507 12.9952C155.456 12.944 155.739 7.20687 155.968 3.63731C156.058 2.24101 156.131 0.920308 156.131 0.702531V0.306693H152.963H149.794L148.934 2.25407C148.461 3.32518 147.222 6.02901 146.18 8.26273C145.139 10.4965 144.212 12.4959 144.12 12.706C143.97 13.0518 143.959 12.5836 144.002 7.76706C144.028 4.84051 144.071 1.98944 144.099 1.43123L144.149 0.416404H141.279H138.408L138.48 1.75016C138.519 2.48369 138.552 6.68015 138.552 11.0756V19.0673H141.991H145.43L147.503 14.816C148.643 12.4778 149.82 10.0216 150.118 9.35787C150.417 8.69412 150.687 8.12636 150.719 8.09619C150.751 8.06602 150.746 8.36224 150.708 8.75446C150.586 9.99913 150.313 18.898 150.395 18.9565C150.438 18.9872 152.068 18.9982 154.018 18.9806L157.562 18.9488L158.18 17.719C158.52 17.0426 160.751 12.9146 163.138 8.54568C165.525 4.17676 167.502 0.510975 167.531 0.399618C167.577 0.222873 167.523 0.200163 167.104 0.222105C166.84 0.235819 165.609 0.261492 164.368 0.279045ZM175.354 1.21181C174.063 3.08162 163.929 16.76 162.841 18.1034C162.535 18.481 162.284 18.8276 162.284 18.8738C162.284 18.9199 163.739 18.9576 165.516 18.9576H168.748L169.101 18.3816C169.295 18.0649 170.102 16.8553 170.895 15.6937L172.337 13.5818H175.756H179.175L179.245 14.1577C179.283 14.4745 179.384 15.2768 179.47 15.9405C179.555 16.6043 179.658 17.53 179.699 17.9976L179.773 18.8479H182.895H186.017L186.015 18.5462C186.013 18.3803 185.966 18.047 185.911 17.8056C185.734 17.0397 183.951 5.62769 183.576 2.85748L183.215 0.196981H179.636H176.056L175.354 1.21181ZM111.632 0.525896C110.514 0.570987 108.722 0.614104 107.649 0.621783C106.577 0.629573 105.699 0.661499 105.699 0.692876C105.699 0.724254 105.327 2.36575 104.871 4.34077C103.627 9.7367 102.522 13.9247 101.361 17.6411C101.145 18.335 100.941 18.9891 100.909 19.0947C100.854 19.2743 101.041 19.2867 103.804 19.2867H106.757L107.171 17.4491C107.736 14.9438 108.978 9.86254 109.731 6.97714L110.353 4.5964L110.951 4.5218C111.948 4.39728 114.153 4.53156 114.686 4.74934C115.564 5.10809 115.742 6.0752 115.121 7.10912C114.387 8.32998 113.319 8.80898 111.33 8.8092C110.626 8.8092 110.094 8.85396 110.094 8.91321C110.094 8.97026 110.314 10.476 110.584 12.2594C110.853 14.0426 111.146 16.3104 111.235 17.2987C111.324 18.287 111.438 19.1263 111.487 19.1637C111.537 19.2013 112.968 19.2072 114.668 19.177L117.758 19.1222L117.113 16.4891C116.453 13.7951 115.917 11.393 115.917 11.1231C115.917 11.0386 116.245 10.8426 116.659 10.6787C118.597 9.91224 119.994 8.7199 120.75 7.18712C121.451 5.7679 121.666 4.42372 121.373 3.29545C120.999 1.85713 119.767 0.950917 117.774 0.648114C116.726 0.488923 113.929 0.433299 111.632 0.525896ZM89.4206 0.717781L87.9201 0.751572L87.7358 1.59887C86.8292 5.76362 84.8314 13.3126 83.3507 18.1693L82.9722 19.4107L90.6273 19.3341C94.8377 19.292 98.2954 19.2472 98.3112 19.2345C98.3602 19.1949 99.4363 15.2572 99.4363 15.1173C99.4363 15.0411 99.3619 15.013 99.2618 15.0513C99.0486 15.1331 90.2237 15.3907 90.1504 15.3173C90.0883 15.2553 90.852 12.2447 90.9579 12.1341C90.998 12.0922 92.7801 12.0181 94.9179 11.9695L98.805 11.8812L99.3383 9.96128C99.6315 8.90531 99.8725 7.97891 99.8736 7.90255C99.8753 7.79185 99.0879 7.77879 95.983 7.83782L92.0904 7.91187L92.414 6.71493C92.5921 6.05655 92.777 5.37009 92.8251 5.18939C92.9041 4.89185 92.9691 4.85225 93.5099 4.77139C93.8385 4.72224 95.9142 4.69734 98.1227 4.71599L102.138 4.75L102.66 2.7752C102.946 1.68905 103.179 0.763311 103.177 0.71811C103.172 0.641751 92.8056 0.641531 89.4206 0.717781ZM69.1056 0.772965C69.1026 0.788106 68.8608 1.75664 68.5681 2.9255L68.0359 5.0505L70.9357 4.97008C72.552 4.92532 73.8351 4.93157 73.8345 4.98445C73.8291 5.46817 71.6416 13.8076 70.6347 17.1829C70.2688 18.4093 69.9865 19.4294 70.0072 19.4499C70.028 19.4704 71.4004 19.4544 73.0571 19.4143L76.0692 19.3416L76.8074 16.2148C77.6562 12.6196 78.1887 10.5538 79.1361 7.17922L79.8094 4.78116L82.6733 4.85982L85.5372 4.93859L86.0047 3.08897C86.2618 2.07162 86.5024 1.12821 86.5393 0.992388L86.6066 0.745538H77.8588C73.0474 0.745538 69.1085 0.757825 69.1056 0.772965ZM50.6832 0.937422L48.352 0.969348L48.2534 1.37857C48.1991 1.60359 47.9193 2.7752 47.6314 3.98202C46.6787 7.97693 43.8797 18.2983 43.4291 19.4787C43.3882 19.5861 43.9718 19.6159 46.1249 19.6159H48.873L49.387 17.4491C49.8835 15.3559 51.7527 7.95839 51.7984 7.90573C51.8108 7.89158 52.1061 8.73087 52.4548 9.77082C52.8035 10.8109 53.6488 13.1456 54.3333 14.9592C55.0178 16.7727 55.6597 18.5377 55.7597 18.8814L55.9416 19.5062H59.43H62.9183L63.1772 18.3816C63.7389 15.9417 67.1876 3.16577 67.8565 1.04724C67.9131 0.867866 67.7359 0.855249 65.1628 0.855249C62.5083 0.855249 62.4086 0.862929 62.4086 1.06853C62.4086 1.18581 61.81 3.64202 61.0784 6.52666C60.3467 9.4113 59.6956 11.9813 59.6314 12.2378C59.5674 12.4943 59.4861 12.7019 59.451 12.6991C59.4159 12.6964 58.5465 10.1753 57.5192 7.09683C56.4919 4.01833 55.5919 1.35454 55.5193 1.17736L55.3873 0.855249L54.2008 0.880373C53.5482 0.894196 51.9653 0.919869 50.6832 0.937422ZM29.4519 1.07149L26.9855 1.12953L26.1319 4.42086C25.6624 6.2311 25.0471 8.50212 24.7646 9.46758C24.4821 10.433 24.0561 11.9635 23.818 12.8686C23.4232 14.3696 23.3889 14.6107 23.4276 15.6114C23.4604 16.4565 23.5232 16.8093 23.7017 17.1474C24.3587 18.3926 25.9992 19.3623 28.1828 19.7961C29.6548 20.0885 33.0004 20.0622 34.7492 19.7443C36.1947 19.4816 37.5809 19.0001 38.7307 18.3613C39.7698 17.784 41.0376 16.5009 41.5562 15.5017C41.9375 14.7672 42.5608 12.8889 42.8487 11.6069C42.9656 11.0867 45.6305 1.47983 45.7627 1.1021C45.8003 0.994472 45.149 0.96496 42.7408 0.96496H39.6708L39.5094 1.54094C39.4206 1.85779 39.0208 3.35118 38.6208 4.85971C36.6753 12.197 36.1893 13.5554 35.132 14.6112C34.3598 15.3823 33.6174 15.6663 32.3736 15.6663C31.1915 15.6663 30.3893 15.3055 30.0555 14.624C29.5712 13.6352 29.8309 12.2638 31.8687 5.04534C32.4702 2.91475 32.9623 1.12514 32.9623 1.06831C32.9623 1.01148 32.7275 0.975821 32.4404 0.989206C32.1533 1.00259 30.8085 1.03956 29.4519 1.07149ZM7.79108 1.15871L4.75943 1.18778L4.50606 2.42039C4.06019 4.58971 2.2255 11.745 1.09534 15.7223C0.492896 17.8424 0 19.6352 0 19.7062C0 19.802 0.784942 19.8353 3.05374 19.8353H6.10747L7.03042 16.0503L7.95325 12.2652H11.6128C13.6257 12.2652 15.2723 12.3023 15.272 12.3475C15.2709 12.5144 14.3722 15.8897 13.8257 17.7802C13.5156 18.8523 13.2818 19.7442 13.3059 19.7623C13.33 19.7803 14.7347 19.7741 16.4274 19.7483L19.5052 19.7014L19.987 17.4919C20.6896 14.2704 21.931 9.34415 23.1259 5.03689C23.7014 2.96214 24.1724 1.22179 24.1724 1.16957C24.1724 1.11735 22.7944 1.07467 21.1102 1.07467H18.048L17.9192 1.76037C17.8483 2.13755 17.4856 3.69074 17.1133 5.2121L16.4362 7.97814L12.8054 8.00974C10.8084 8.02707 9.15561 8.03069 9.13253 8.01775C9.07166 7.98341 9.58928 5.95144 10.2838 3.49764C10.6154 2.32615 10.8723 1.31406 10.8547 1.24856C10.8324 1.16573 9.90078 1.13841 7.79108 1.15871ZM178.701 6.96167C178.858 8.29872 178.985 9.42194 178.985 9.4576C178.985 9.49325 178.068 9.52244 176.946 9.52244H174.907L175.694 8.3979C176.126 7.77934 176.904 6.64361 177.421 5.87377C177.938 5.10404 178.374 4.48691 178.389 4.50238C178.405 4.51796 178.545 5.62451 178.701 6.96167ZM150.821 7.94994C150.781 7.9901 150.748 7.95719 150.748 7.87677C150.748 7.79635 150.781 7.76344 150.821 7.80359C150.861 7.84385 150.861 7.90968 150.821 7.94994Z" fill="white"/>
</svg>
