<svg width="152" height="21" viewBox="0 0 152 21" fill="none" xmlns="http://www.w3.org/2000/svg">
<path d="M7.64397 20.1365C5.39796 20.1365 3.55775 19.6157 2.12332 18.574C0.707774 17.5138 0 16.0071 0 14.054C0 13.6448 0.0471849 13.1425 0.141555 12.5473C0.386917 11.2081 0.736086 9.59913 1.18906 7.72045C2.4725 2.60522 5.78488 0.0476074 11.1262 0.0476074C12.5795 0.0476074 13.8818 0.289418 15.0331 0.77304C16.1845 1.23806 17.0904 1.94489 17.751 2.89353C18.4115 3.82357 18.7419 4.93962 18.7419 6.24168C18.7419 6.6323 18.6947 7.12522 18.6004 7.72045C18.3172 9.37592 17.9775 10.9849 17.5811 12.5473C16.9205 15.0957 15.7787 17.0022 14.1555 18.2671C12.5323 19.5133 10.3618 20.1365 7.64397 20.1365ZM8.04032 16.1187C9.09727 16.1187 9.99377 15.8118 10.7299 15.1979C11.4848 14.5841 12.0227 13.6448 12.3436 12.38C12.7777 10.6314 13.1079 9.10621 13.3345 7.80415C13.41 7.41353 13.4478 7.01361 13.4478 6.6044C13.4478 4.91172 12.5512 4.06538 10.7582 4.06538C9.70123 4.06538 8.79528 4.3723 8.04032 4.98613C7.30423 5.59995 6.77576 6.53929 6.45491 7.80415C6.11517 9.0504 5.77544 10.5757 5.43571 12.38C5.36021 12.7519 5.32246 13.1425 5.32246 13.5518C5.32246 15.263 6.22842 16.1187 8.04032 16.1187Z" fill="white"/>
<path d="M21.6146 19.8575C21.4069 19.8575 21.2466 19.7924 21.1333 19.6622C21.039 19.5133 21.0106 19.346 21.0483 19.16L24.9553 1.02415C24.993 0.819541 25.0969 0.652134 25.2667 0.521929C25.4366 0.391723 25.6159 0.32662 25.8046 0.32662H33.3353C35.4303 0.32662 37.1101 0.754438 38.3747 1.61008C39.6581 2.46572 40.2999 3.70267 40.2999 5.32094C40.2999 5.78596 40.2432 6.26958 40.13 6.7718C39.6581 8.91089 38.705 10.4919 37.2706 11.515C35.855 12.5381 33.9109 13.0495 31.4384 13.0495H27.6165L26.3142 19.16C26.2764 19.3646 26.1726 19.5319 26.0027 19.6622C25.8329 19.7924 25.6537 19.8575 25.4648 19.8575H21.6146ZM31.6367 9.19921C32.4294 9.19921 33.1183 8.9853 33.7034 8.55748C34.3074 8.12967 34.7037 7.51583 34.8924 6.716C34.949 6.39978 34.9774 6.12078 34.9774 5.87896C34.9774 5.33954 34.8169 4.93032 34.4961 4.65131C34.1753 4.3537 33.6279 4.20489 32.8541 4.20489H29.4567L28.3809 9.19921H31.6367Z" fill="white"/>
<path d="M46.6787 19.8575C46.4711 19.8575 46.3106 19.7924 46.1974 19.6622C46.0841 19.5133 46.0464 19.346 46.0841 19.16L49.2267 4.70711H44.1873C43.9797 4.70711 43.8192 4.64201 43.706 4.51181C43.6116 4.363 43.5834 4.19559 43.6211 4.00958L44.2723 1.02415C44.31 0.819541 44.4138 0.652134 44.5836 0.521929C44.7535 0.391723 44.9328 0.32662 45.1215 0.32662H60.3529C60.5605 0.32662 60.7209 0.391723 60.8342 0.521929C60.9097 0.633534 60.9474 0.745138 60.9474 0.856743C60.9474 0.912546 60.938 0.968348 60.9191 1.02415L60.2679 4.00958C60.2302 4.21419 60.1264 4.3816 59.9565 4.51181C59.8055 4.64201 59.6263 4.70711 59.4187 4.70711H54.4076L51.265 19.16C51.2273 19.3646 51.1235 19.5319 50.9537 19.6622C50.7837 19.7924 50.6045 19.8575 50.4158 19.8575H46.6787Z" fill="white"/>
<path d="M61.6695 19.8575C61.4619 19.8575 61.3016 19.7924 61.1883 19.6622C61.075 19.5133 61.0373 19.346 61.075 19.16L65.0103 1.02415C65.048 0.819541 65.1519 0.652134 65.3217 0.521929C65.4916 0.391723 65.6708 0.32662 65.8597 0.32662H69.6816C69.8892 0.32662 70.0497 0.391723 70.1629 0.521929C70.2384 0.633534 70.2761 0.745138 70.2761 0.856743C70.2761 0.912546 70.2666 0.968348 70.2478 1.02415L66.3409 19.16C66.3031 19.3646 66.1994 19.5319 66.0295 19.6622C65.8596 19.7924 65.6803 19.8575 65.4916 19.8575H61.6695Z" fill="white"/>
<path d="M72.4497 19.8575C72.2421 19.8575 72.0816 19.7924 71.9684 19.6622C71.8552 19.5319 71.8174 19.3646 71.8552 19.16L75.7621 1.02415C75.7998 0.819541 75.9036 0.652134 76.0734 0.521929C76.2434 0.391723 76.4321 0.32662 76.6397 0.32662H79.6973C80.1503 0.32662 80.4428 0.531228 80.5749 0.940447L83.6608 9.72934L90.5404 0.940447C90.6348 0.791641 90.7669 0.652134 90.9367 0.521929C91.1255 0.391723 91.352 0.32662 91.6162 0.32662H94.7022C94.9098 0.32662 95.0701 0.391723 95.1834 0.521929C95.2589 0.633534 95.2967 0.745138 95.2967 0.856743C95.2967 0.912546 95.2872 0.968348 95.2683 1.02415L91.3614 19.16C91.3237 19.3646 91.2198 19.5319 91.05 19.6622C90.8801 19.7924 90.7009 19.8575 90.5121 19.8575H87.0864C86.8788 19.8575 86.7185 19.7924 86.6051 19.6622C86.5108 19.5133 86.4825 19.346 86.5203 19.16L88.7285 8.8644L84.3969 14.5284C84.2082 14.733 84.0289 14.8911 83.859 15.0027C83.6892 15.1143 83.491 15.1701 83.2645 15.1701H81.7923C81.396 15.1701 81.1223 14.9562 80.9713 14.5284L78.9613 8.61329L76.6963 19.16C76.6586 19.3646 76.5547 19.5319 76.3849 19.6622C76.215 19.7924 76.0357 19.8575 75.847 19.8575H72.4497Z" fill="white"/>
<path d="M97.4393 19.8575C97.2316 19.8575 97.0712 19.7924 96.958 19.6622C96.8448 19.5133 96.807 19.346 96.8447 19.16L100.78 1.02415C100.818 0.819541 100.922 0.652134 101.091 0.521929C101.261 0.391723 101.44 0.32662 101.629 0.32662H105.451C105.659 0.32662 105.82 0.391723 105.933 0.521929C106.008 0.633534 106.046 0.745138 106.046 0.856743C106.046 0.912546 106.036 0.968348 106.017 1.02415L102.111 19.16C102.073 19.3646 101.969 19.5319 101.799 19.6622C101.629 19.7924 101.45 19.8575 101.261 19.8575H97.4393Z" fill="white"/>
<path d="M115.212 20.1365C113.551 20.1365 112.126 19.9133 110.937 19.4668C109.767 19.0205 108.879 18.4252 108.276 17.6812C107.691 16.9371 107.398 16.1094 107.398 15.1979C107.398 15.0492 107.417 14.826 107.454 14.5284C107.493 14.3609 107.568 14.2214 107.682 14.1098C107.814 13.9982 107.964 13.9424 108.135 13.9424H111.758C111.985 13.9424 112.154 13.9797 112.267 14.054C112.4 14.1284 112.532 14.2586 112.664 14.4446C112.796 14.9282 113.098 15.3282 113.57 15.6444C114.061 15.9606 114.731 16.1187 115.58 16.1187C116.656 16.1187 117.525 15.9513 118.185 15.6165C118.846 15.2817 119.242 14.826 119.373 14.2493C119.393 14.1749 119.402 14.0633 119.402 13.9146C119.402 13.4495 119.11 13.0868 118.525 12.8264C117.939 12.5473 116.863 12.2219 115.297 11.8498C113.466 11.4592 112.079 10.8733 111.135 10.0921C110.191 9.29221 109.72 8.25057 109.72 6.96711C109.72 6.52069 109.777 6.06497 109.89 5.59996C110.267 3.87008 111.202 2.51221 112.692 1.52637C114.202 0.540529 116.146 0.0476074 118.525 0.0476074C119.959 0.0476074 121.233 0.298719 122.347 0.800941C123.46 1.30316 124.319 1.94489 124.923 2.72613C125.546 3.48876 125.857 4.2514 125.857 5.01403C125.857 5.23724 125.848 5.39534 125.828 5.48835C125.791 5.65575 125.706 5.79526 125.574 5.90686C125.461 6.01848 125.319 6.07427 125.149 6.07427H121.356C120.941 6.07427 120.657 5.91616 120.507 5.59996C120.488 5.17213 120.261 4.80942 119.827 4.51181C119.393 4.21419 118.826 4.06538 118.128 4.06538C117.297 4.06538 116.609 4.21419 116.061 4.51181C115.533 4.80942 115.202 5.24654 115.071 5.82316C115.052 5.91616 115.042 6.03707 115.042 6.18588C115.042 6.6323 115.306 7.00432 115.835 7.30193C116.382 7.58094 117.336 7.86926 118.694 8.16686C120.809 8.57608 122.347 9.16201 123.309 9.92464C124.29 10.6873 124.781 11.7011 124.781 12.9659C124.781 13.3937 124.724 13.8587 124.611 14.3609C124.197 16.2582 123.186 17.6998 121.582 18.6857C119.997 19.6529 117.874 20.1365 115.212 20.1365Z" fill="white"/>
<path d="M128.537 19.8575C128.329 19.8575 128.169 19.7924 128.056 19.6622C127.943 19.5319 127.904 19.3646 127.943 19.16L131.85 1.02415C131.887 0.819541 131.991 0.652134 132.161 0.521929C132.331 0.391723 132.52 0.32662 132.728 0.32662H135.784C136.238 0.32662 136.53 0.531228 136.663 0.940447L139.749 9.72934L146.628 0.940447C146.722 0.791641 146.855 0.652134 147.024 0.521929C147.213 0.391723 147.439 0.32662 147.703 0.32662H150.79C150.998 0.32662 151.158 0.391723 151.271 0.521929C151.347 0.633534 151.384 0.745138 151.384 0.856743C151.384 0.912546 151.375 0.968348 151.356 1.02415L147.449 19.16C147.411 19.3646 147.307 19.5319 147.137 19.6622C146.968 19.7924 146.788 19.8575 146.599 19.8575H143.174C142.966 19.8575 142.806 19.7924 142.693 19.6622C142.598 19.5133 142.57 19.346 142.608 19.16L144.816 8.8644L140.484 14.5284C140.296 14.733 140.116 14.8911 139.947 15.0027C139.777 15.1143 139.578 15.1701 139.352 15.1701H137.88C137.483 15.1701 137.21 14.9562 137.059 14.5284L135.049 8.61329L132.784 19.16C132.746 19.3646 132.642 19.5319 132.472 19.6622C132.303 19.7924 132.123 19.8575 131.934 19.8575H128.537Z" fill="white"/>
</svg>
